<?xml version="1.0" encoding="UTF-8"?>
<svg version="1.1" xmlns="http://www.w3.org/2000/svg" width="1451" height="2000">
<path d="M0 0 C1.14900957 -0.00429709 2.29801913 -0.00859419 3.48184717 -0.0130215 C5.3723251 -0.01251115 5.3723251 -0.01251115 7.30099452 -0.01199049 C8.66051993 -0.01515762 10.02004439 -0.01875704 11.37956762 -0.02274993 C15.13107674 -0.03248421 18.88257005 -0.03598322 22.63409003 -0.03847325 C26.70959027 -0.04224121 30.78507802 -0.05168662 34.86057019 -0.06037748 C42.95069754 -0.07669137 51.04082398 -0.08752901 59.13096227 -0.09665609 C65.85935604 -0.10440073 72.58774301 -0.11447425 79.31613123 -0.12605089 C80.28641461 -0.12771897 81.25669799 -0.12938704 82.25638389 -0.13110567 C84.23519259 -0.1345145 86.21400129 -0.13792602 88.19280998 -0.14134019 C114.94117284 -0.18701151 141.68955013 -0.21749124 168.43793643 -0.24550241 C169.53277706 -0.2466574 170.6276177 -0.24781239 171.75563533 -0.24900238 C215.0842869 -0.29469462 258.41294446 -0.3343299 301.74161213 -0.36102732 C312.47534796 -0.36765098 323.20908363 -0.37452439 333.94281924 -0.38148874 C335.12888943 -0.38225193 336.31495963 -0.38301511 337.53697135 -0.38380143 C376.01362083 -0.40875849 414.49016241 -0.46225768 452.96675575 -0.531507 C492.50875296 -0.60254447 532.05069209 -0.64767755 571.59275385 -0.65900809 C577.17362113 -0.66061306 582.75448827 -0.66250066 588.3353554 -0.66455263 C589.98295565 -0.66514195 589.98295565 -0.66514195 591.66384076 -0.66574319 C609.36348665 -0.67280985 627.06298112 -0.70705083 644.76256895 -0.75121364 C662.54093134 -0.79495395 680.31912805 -0.80951747 698.09753929 -0.79412038 C708.66756924 -0.78584277 719.23702244 -0.79997404 729.80695907 -0.84583971 C736.86137734 -0.87426157 743.91540658 -0.87380552 750.96983964 -0.84957484 C754.99350332 -0.83658653 759.01606733 -0.83641422 763.03962474 -0.8713404 C766.69905725 -0.90285699 770.35651612 -0.89765717 774.01590306 -0.8629573 C775.95442408 -0.85410059 777.8930024 -0.88459058 779.83127952 -0.91659108 C788.10088681 -0.78592333 788.10088681 -0.78592333 791.58023126 1.90516139 C793.33602782 3.90093744 794.81494586 5.92642113 796.28949893 8.13340384 C797.6290497 9.4011102 798.99571709 10.64254319 800.41449893 11.82090384 C803.52499128 14.46392335 806.43955507 17.20643447 809.28949893 20.13340384 C810.11449893 20.95840384 810.93949893 21.78340384 811.78949893 22.63340384 C815.53949893 26.38340384 815.53949893 26.38340384 819.28949893 30.13340384 C820.06870825 30.90242655 820.84791758 31.67144926 821.65073931 32.46377569 C824.18589126 35.02858416 826.60110911 37.66392982 829.00965273 40.34745413 C836.64284611 48.74677915 844.73064332 56.69834236 852.76703799 64.70859915 C854.5111989 66.45083736 856.25512966 68.19330599 857.99884951 69.93598562 C861.73227884 73.66627146 865.46719368 77.39506003 869.20344698 81.12251669 C874.61334844 86.51977558 880.01993097 91.92034975 885.42565545 97.3217918 C894.21021103 106.09930505 902.99663458 114.87494568 911.78461611 123.64902884 C912.30888885 124.17247377 912.83316159 124.69591869 913.37332138 125.23522559 C917.09533142 128.95133423 920.81740852 132.66737569 924.53949893 136.38340384 C928.79833649 140.63530838 933.05714052 144.88724651 937.31586611 149.13926321 C937.84070354 149.66327252 938.36554098 150.18728182 938.90628257 150.7271702 C947.66943532 159.47661885 956.43061011 168.22804555 965.19038713 176.98087388 C970.58095774 182.36697737 975.97329322 187.75130216 981.36796054 193.13330248 C985.5004956 197.25638594 989.63046579 201.38203191 993.7595154 205.50860602 C995.44888224 207.19610474 997.13911139 208.88274073 998.83027804 210.56843573 C1001.14390874 212.87481749 1003.45439782 215.18430315 1005.76416934 217.49454886 C1006.76121272 218.4861998 1006.76121272 218.4861998 1007.77839839 219.49788409 C1010.89425955 222.62057289 1013.89974801 225.78994447 1016.78460276 229.1280871 C1020.31815305 233.21652477 1024.06500954 237.04574568 1027.89316714 240.85732657 C1028.62657616 241.59159001 1029.35998517 242.32585345 1030.11561871 243.0823673 C1032.55353819 245.52192305 1034.9949945 247.95790695 1037.43647158 250.39390188 C1039.19313078 252.15027877 1040.94956934 253.90687636 1042.70580447 255.66367728 C1046.47800309 259.43610304 1050.25172109 263.20699869 1054.0268532 266.97648817 C1059.49038839 272.4318631 1064.95112871 277.89002874 1070.41121165 283.34885863 C1079.27884016 292.21430231 1088.14869555 301.07751449 1097.01996768 309.93931204 C1105.62107267 318.53124066 1114.22112936 327.12421634 1122.81977236 335.71860892 C1123.34977849 336.24835232 1123.87978462 336.77809573 1124.42585154 337.32389196 C1127.0856676 339.98240261 1129.74546285 342.64093408 1132.40524757 345.29947609 C1150.72979336 363.61541822 1169.05654441 381.92915117 1187.38558352 400.24059683 C1188.15818526 401.01245898 1188.930787 401.78432113 1189.72680092 402.57957304 C1191.14843302 403.99983164 1192.57007812 405.42007724 1193.99173951 406.84030652 C1197.42523216 410.27043372 1200.85801691 413.70126491 1204.28949893 417.13340384 C1205.11449893 417.95840384 1205.93949893 418.78340384 1206.78949893 419.63340384 C1212.62283226 425.46673717 1218.45616559 431.3000705 1224.28949893 437.13340384 C1225.13512393 437.95840384 1225.98074893 438.78340384 1226.85199893 439.63340384 C1229.28949893 442.13340384 1229.28949893 442.13340384 1231.10199893 444.50840384 C1233.49634308 447.38161683 1236.10933058 449.63334851 1238.99653018 451.99668509 C1241.00958642 453.87256544 1242.66744926 455.76094632 1244.42199477 457.8704177 C1248.05297042 462.03936217 1252.01487729 465.22652798 1256.46253413 468.47790086 C1291.92332448 495.2201104 1331.05442151 526.606632 1337.84021723 572.97609144 C1339.22305706 583.5021173 1339.85955522 594.03274765 1340.18401492 604.6351586 C1340.20545193 605.31814756 1340.22688894 606.00113652 1340.24897556 606.70482212 C1340.77784083 624.29249585 1340.55317676 641.85271691 1340.06785397 659.43825131 C1339.73768695 671.41291839 1339.61231839 683.37350161 1339.65579569 695.35261732 C1339.66007844 696.57683115 1339.66007844 696.57683115 1339.6644477 697.82577657 C1339.67983442 701.99011904 1339.69811842 706.15444364 1339.71741379 710.31876958 C1339.8498526 740.18277729 1339.59112343 770.03249982 1339.11218989 799.89241225 C1338.63990248 829.40817369 1338.34024506 858.9177314 1338.26412547 888.4372769 C1338.26166741 889.35975764 1338.25920936 890.28223838 1338.25667682 891.23267308 C1338.2342903 899.66058205 1338.21391953 908.08849485 1338.19598816 916.51641449 C1338.15138107 937.45400851 1338.08039629 958.39146861 1337.9912287 979.32891947 C1337.98719148 980.28162393 1337.98315427 981.23432839 1337.97899471 982.21590268 C1337.78100976 1028.38329939 1337.27800869 1074.54668067 1336.75019228 1120.7112847 C1336.02842384 1183.8883822 1335.48174331 1247.06290663 1335.18519265 1310.24350412 C1335.17109466 1313.2465778 1335.15690562 1316.24965104 1335.1426973 1319.2527242 C1335.05799867 1337.18026669 1334.97556502 1355.10781927 1334.89544299 1373.03538279 C1334.7048219 1415.61566186 1334.47757489 1458.19571613 1334.22847903 1500.77569205 C1334.22027893 1502.17748152 1334.22027893 1502.17748152 1334.21191318 1503.60758997 C1333.74790558 1582.77590037 1333.15280421 1661.94270842 1332.32971225 1741.10813667 C1332.205618 1753.06099196 1332.09377093 1765.01391332 1331.98910296 1776.96695334 C1331.87246267 1790.27367893 1331.7387171 1803.58010422 1331.58123965 1816.88641223 C1331.50235974 1823.58129998 1331.43080621 1830.27601971 1331.37957483 1836.97119489 C1331.33254298 1843.07231963 1331.26294977 1849.17277406 1331.17598759 1855.27345653 C1331.14860253 1857.45583956 1331.12899095 1859.63833921 1331.11853879 1861.82086902 C1331.0129558 1882.08670707 1328.06054935 1901.69016766 1319.28949893 1920.13340384 C1318.81818545 1921.13331351 1318.81818545 1921.13331351 1318.33735049 1922.15342337 C1301.33937629 1957.68791056 1271.00408413 1982.93871193 1234.20356143 1996.21934134 C1229.63534985 1997.65226561 1225.00903963 1998.39092158 1220.28949893 1999.13340384 C1219.58676326 1999.30388452 1218.88402759 1999.4743652 1218.15999691 1999.65001197 C1214.38619821 2000.28551968 1210.66814328 2000.27202558 1206.8537187 2000.262205 C1206.00097423 2000.26398001 1205.14822977 2000.26575502 1204.26964456 2000.26758382 C1201.39311808 2000.27233989 1198.51664139 2000.26994691 1195.64011252 2000.26762491 C1193.55569882 2000.26957726 1191.47128549 2000.27196588 1189.38687274 2000.27475289 C1183.62260527 2000.28117078 1177.85835171 2000.28131308 1172.09408134 2000.28047548 C1165.8365605 2000.28064462 1159.57904469 2000.28654681 1153.32152635 2000.29171634 C1142.34200593 2000.29996815 1131.36248979 2000.30446856 1120.38296664 2000.30644232 C1108.59886841 2000.30857002 1096.8147739 2000.31282799 1085.03067744 2000.31968504 C1083.91515366 2000.32033096 1083.91515366 2000.32033096 1082.77709405 2000.32098993 C1079.74827549 2000.32274827 1076.71945694 2000.32451791 1073.69063841 2000.32630295 C1036.95880023 2000.3479088 1000.22696131 2000.35878296 963.49511822 2000.36777919 C951.5833871 2000.37071286 939.67165616 2000.37408272 927.75992525 2000.3777464 C926.91966403 2000.37800469 926.07940281 2000.37826299 925.21367912 2000.3785291 C921.81430295 2000.37957532 918.41492678 2000.38062375 915.01555061 2000.38167492 C856.86438809 2000.39964092 798.71322528 2000.41501969 740.56206038 2000.42243396 C735.99373721 2000.42301793 731.42541404 2000.42361519 726.85709087 2000.42421157 C725.95087897 2000.42432969 725.04466707 2000.42444781 724.1109942 2000.42456951 C714.92977003 2000.4257669 705.74854587 2000.42697566 696.5673217 2000.42820204 C694.72645697 2000.42844728 692.88559223 2000.42869113 691.04472749 2000.42893361 C631.93297135 2000.43672201 572.82123507 2000.45910167 513.70948761 2000.49161004 C471.23991345 2000.51495821 428.77034324 2000.53650873 386.30076277 2000.54361635 C385.42719108 2000.54376338 384.55361938 2000.5439104 383.65357582 2000.54406187 C364.47549359 2000.54724685 345.29741139 2000.54929763 326.11932893 2000.55028942 C318.40255562 2000.55070416 310.68578233 2000.55125905 302.96900904 2000.55185133 C302.12445956 2000.551912 301.27991007 2000.55197267 300.40976817 2000.55203518 C273.2134195 2000.55405055 246.01709429 2000.56828453 218.8207538 2000.58879633 C191.4215343 2000.60938782 164.02234191 2000.61726594 136.62311545 2000.60771857 C132.83425508 2000.60640017 129.04539467 2000.60522211 125.25653422 2000.60412794 C124.14248289 2000.60379817 124.14248289 2000.60379817 123.00592547 2000.60346174 C111.26060082 2000.60035119 99.5153281 2000.61065921 87.77001548 2000.62660349 C76.21176743 2000.64201412 64.65361538 2000.64275002 53.09536014 2000.62905526 C46.91610821 2000.62214637 40.73703451 2000.62153126 34.55779836 2000.63861535 C28.92980816 2000.65404849 23.302139 2000.6508668 17.67415815 2000.63320507 C15.65707869 2000.63007038 13.63997449 2000.63355321 11.62292337 2000.64469681 C-3.11876054 2000.72079663 -18.40661202 1999.98285074 -31.78862607 1993.06309134 C-33.82520664 1992.0253802 -33.82520664 1992.0253802 -36.57768857 1991.19199759 C-44.23965383 1988.6029794 -51.42724024 1984.52059286 -58.18706357 1980.11387259 C-59.75381615 1979.06674754 -59.75381615 1979.06674754 -61.71050107 1978.13340384 C-61.71050107 1977.47340384 -61.71050107 1976.81340384 -61.71050107 1976.13340384 C-62.70050107 1975.82402884 -62.70050107 1975.82402884 -63.71050107 1975.50840384 C-81.54039649 1967.33636844 -98.09687053 1944.45463181 -106.71050107 1927.13340384 C-107.50567346 1924.81592282 -108.10382419 1922.50955496 -108.71050107 1920.13340384 C-109.37050107 1919.80340384 -110.03050107 1919.47340384 -110.71050107 1919.13340384 C-112.12695648 1916.05354936 -113.08757382 1912.78820861 -114.14800107 1909.57090384 C-114.59756162 1908.27636282 -114.59756162 1908.27636282 -115.0562042 1906.95566946 C-120.83976083 1889.60499956 -121.14982982 1872.98076048 -121.09786947 1854.84805765 C-121.09051862 1851.10524188 -121.10075489 1847.36246426 -121.10863996 1843.61965522 C-121.12009845 1837.04560567 -121.12048297 1830.47162851 -121.11354452 1823.8975737 C-121.10321044 1814.05587399 -121.11022021 1804.21423772 -121.12052458 1794.37254068 C-121.13757715 1777.59683092 -121.14039059 1760.82114576 -121.13540876 1744.04542929 C-121.13040659 1727.04770673 -121.13190027 1710.0500033 -121.14129102 1693.05228239 C-121.14217374 1691.44115689 -121.14217374 1691.44115689 -121.14307429 1689.7974834 C-121.14549087 1685.42280604 -121.14795096 1681.04812871 -121.15046695 1676.6734514 C-121.17597017 1632.27223793 -121.18195423 1587.87103659 -121.1800558 1543.46981678 C-121.17979617 1537.33508047 -121.1795575 1531.20034416 -121.17934072 1525.06560785 C-121.17929668 1523.84708855 -121.17925264 1522.62856925 -121.17920727 1521.37312512 C-121.17834379 1494.3666713 -121.18313558 1467.36021937 -121.18902263 1440.35376628 C-121.1903636 1434.18685048 -121.19166349 1428.01993468 -121.19296828 1421.85301887 C-121.1934928 1419.37797271 -121.19401739 1416.90292656 -121.19454205 1414.4278804 C-121.19480183 1413.2010417 -121.19506161 1411.974203 -121.19532926 1410.71018737 C-121.19585545 1408.2286287 -121.19638312 1405.74707003 -121.19691228 1403.26551136 C-121.21190939 1332.85029501 -121.22067815 1262.43508017 -121.21595609 1192.01986223 C-121.21587023 1190.71595206 -121.21578436 1189.41204188 -121.2156959 1188.06861927 C-121.2147365 1173.52868468 -121.21369829 1158.9887501 -121.21263701 1144.44881552 C-121.21234749 1140.46923879 -121.21205801 1136.48966206 -121.2117686 1132.51008534 C-121.2115746 1129.854848 -121.21137911 1127.19961066 -121.21118211 1124.54437332 C-121.20496625 1040.58013878 -121.21982539 956.61594293 -121.25249326 872.65171438 C-121.26071653 851.49599311 -121.26886652 830.34027181 -121.27659452 809.18455034 C-121.27707072 807.8818991 -121.27754691 806.57924785 -121.27803754 805.23712233 C-121.29262439 765.08678908 -121.30106913 724.93645823 -121.30316007 684.78612238 C-121.30322639 683.52552064 -121.30329271 682.26491889 -121.30336103 680.96611709 C-121.30475511 653.29256959 -121.30464381 625.61902225 -121.30315094 597.94547475 C-121.30262884 588.04333867 -121.30221167 578.14120259 -121.30184277 568.2390665 C-121.30174955 565.77568149 -121.30165041 563.31229649 -121.30154533 560.84891148 C-121.29992051 521.60353659 -121.31274175 482.35818317 -121.33270311 443.11281385 C-121.35269036 403.58435103 -121.3564065 364.05592023 -121.33807736 324.52745566 C-121.33554362 319.06308141 -121.33318115 313.59870709 -121.33091962 308.13433272 C-121.33046924 307.0631881 -121.33001886 305.99204349 -121.32955483 304.88843995 C-121.32288138 287.94084302 -121.3329552 270.99329936 -121.350031 254.04571146 C-121.36647673 237.37333358 -121.36501763 220.70103633 -121.34463264 204.02866196 C-121.33321931 194.25989334 -121.33535986 184.49135904 -121.35784781 174.72260831 C-121.37142966 168.22455426 -121.36668685 161.72667558 -121.34741539 155.22863645 C-121.33701181 151.55161764 -121.33401051 147.87505901 -121.35373329 144.19806783 C-121.48598633 117.73179115 -118.33938718 90.94064359 -103.71050107 68.13340384 C-103.37711729 67.59683157 -103.0437335 67.06025931 -102.70024717 66.50742728 C-95.55684624 55.04969509 -87.27885816 45.65669802 -77.71050107 36.13340384 C-76.90225889 35.30324759 -76.0940167 34.47309134 -75.26128232 33.61777884 C-57.50923114 16.32787906 -34.54178351 6.57681512 -10.71050107 1.13340384 C-9.58502271 0.87526471 -9.58502271 0.87526471 -8.43680742 0.61191064 C-5.56690492 0.1082006 -2.91304648 0.00480932 0 0 Z " fill="#FEB700" transform="translate(120.71050107479095,-0.13340383768081665)"/>
<path d="M0 0 C2.4815649 -0.00461562 4.96312705 -0.01097296 7.44468355 -0.01890898 C12.81456603 -0.03207422 18.18423626 -0.03297311 23.55410957 -0.02272034 C31.53960442 -0.00751537 39.52496465 -0.01536401 47.51045875 -0.02755357 C61.77709245 -0.04856223 76.04365428 -0.04681269 90.31029473 -0.03523792 C102.79558035 -0.02515865 115.28083969 -0.02255681 127.76612854 -0.02732849 C129.01046662 -0.0277868 129.01046662 -0.0277868 130.27994284 -0.02825437 C133.64775475 -0.02949981 137.01556664 -0.03077342 140.38337852 -0.03209343 C171.94841524 -0.04431765 203.5134063 -0.03325428 235.07843596 -0.01170584 C263.09573144 0.00727528 291.11295418 0.00557671 319.13024902 -0.0135498 C350.63913383 -0.03498824 382.14797832 -0.04345057 413.65686941 -0.03110075 C417.01839287 -0.02981796 420.37991634 -0.0285666 423.74143982 -0.02732849 C424.98289493 -0.02685403 424.98289493 -0.02685403 426.24942994 -0.02636998 C438.72404207 -0.0218283 451.19862496 -0.02712584 463.67323303 -0.0372467 C477.8635296 -0.04870243 492.05374334 -0.04578466 506.24402964 -0.02412373 C514.17681947 -0.01241266 522.10942974 -0.01156226 530.04221476 -0.02670843 C535.97691441 -0.03678587 541.91145713 -0.02578924 547.84613889 -0.00681013 C550.23824296 -0.0023609 552.6303712 -0.00457226 555.02245957 -0.01431328 C580.00184156 -0.1081902 601.39487612 4.02030234 619.81091309 21.97668457 C623.94701386 26.36613026 627.14715479 31.35498191 630.25378418 36.50793457 C630.8957373 37.53467285 630.8957373 37.53467285 631.55065918 38.58215332 C639.57970911 52.81827647 638.82364511 69.00792464 638.76171875 84.77964783 C638.76633239 87.3426952 638.77268841 89.90573992 638.78062773 92.46877915 C638.79500687 98.02284088 638.79467822 103.5767468 638.78443909 109.13081551 C638.76925431 117.39019485 638.77707245 125.64944375 638.78927232 133.90882233 C638.81029678 148.66378059 638.80852503 163.41866943 638.79695667 178.17363425 C638.78688243 191.08679796 638.78427323 203.99993627 638.78904724 216.9131031 C638.78950555 218.19945549 638.78950555 218.19945549 638.78997312 219.5117948 C638.79121854 222.99321952 638.79249215 226.47464424 638.79381218 229.95606893 C638.80604026 262.59548567 638.7949671 295.23485827 638.77342459 327.87426819 C638.75444475 356.85122035 638.75614017 385.82810217 638.77526855 414.80505371 C638.79670326 447.38441628 638.80517125 479.96373988 638.7928195 512.54310852 C638.79153669 516.0183891 638.79028533 519.49366968 638.78904724 522.96895027 C638.78873093 523.82461045 638.78841462 524.68027062 638.78808873 525.56185989 C638.78354534 538.46393881 638.78884783 551.36598949 638.79896545 564.2680645 C638.81041702 578.94408996 638.80751232 593.62003532 638.78584248 608.29605084 C638.77412411 616.50231819 638.77329166 624.70841196 638.78842718 632.9146747 C638.79849391 639.05127837 638.78752296 645.18767886 638.76852888 651.32425762 C638.76407467 653.7998487 638.76630234 656.27546312 638.77603203 658.75103908 C638.8635729 682.88280032 635.41565229 702.1913593 617.97253418 719.88684082 C599.23481623 737.95150856 578.18717426 740.11623236 553.36639404 740.00914001 C550.85738045 740.01303765 548.34836907 740.01868179 545.83936286 740.02591091 C540.40654017 740.03755441 534.97393896 740.03690648 529.54112053 740.02513123 C521.46229321 740.00766929 513.38359328 740.01327716 505.30475916 740.02329814 C490.87310916 740.04045028 476.44153537 740.03497496 462.00988699 740.01994095 C449.38276219 740.00687197 436.75566378 740.00169653 424.12853241 740.00425911 C422.87052566 740.00449973 422.87052566 740.00449973 421.58710464 740.00474522 C418.18242354 740.00540884 414.77774246 740.00611125 411.37306138 740.00687056 C379.46082806 740.01388844 347.54864119 739.99842302 315.63641969 739.9722471 C287.29710865 739.94912502 258.95784863 739.94374765 230.61853027 739.95397949 C223.3587812 739.9565816 216.09903213 739.95916664 208.83928299 739.96157742 C207.94546179 739.96187486 207.05164059 739.96217231 206.1307339 739.96247877 C182.43219544 739.97009583 158.73366114 739.96367974 135.03512454 739.9528814 C132.48484129 739.95173362 129.93455804 739.95059044 127.38427478 739.94945457 C125.69257287 739.94869933 124.00087097 739.94793368 122.30916907 739.94715756 C109.6885836 739.94150343 97.06801135 739.94282629 84.44742584 739.94738579 C70.09777208 739.95249636 55.74816773 739.94662804 41.39852628 739.92649149 C33.37140531 739.91551646 25.34438147 739.91270151 17.31725757 739.92178002 C11.32116555 739.92762331 5.32520714 739.91775121 -0.67087093 739.90178037 C-3.09454399 739.89773703 -5.51823184 739.89873382 -7.94189939 739.90529924 C-22.63336633 739.9416887 -35.54863448 739.7603276 -48.87121582 732.88293457 C-49.54934326 732.53666016 -50.2274707 732.19038574 -50.92614746 731.83361816 C-57.05687148 728.57080874 -61.94498666 724.52740142 -66.74621582 719.50793457 C-67.91410645 718.35164551 -67.91410645 718.35164551 -69.10559082 717.17199707 C-74.96296573 711.09841034 -79.62781839 704.37831204 -82.74621582 696.50793457 C-83.08088979 695.666365 -83.41556377 694.82479542 -83.76037937 693.95772374 C-87.84904883 681.90228325 -87.30009034 669.80470984 -87.24742126 657.21566772 C-87.25131732 654.63825872 -87.2569602 652.06085186 -87.26419216 649.48345006 C-87.27704712 643.89501376 -87.27517287 638.30673637 -87.26341248 632.71829987 C-87.24597239 624.40801356 -87.25155043 616.09785134 -87.26157939 607.78755846 C-87.278744 592.9430491 -87.27324807 578.09861374 -87.2582222 563.25410592 C-87.24515893 550.26451192 -87.23997668 537.27494356 -87.24254036 524.28534317 C-87.24270078 523.42296663 -87.24286119 522.56059009 -87.24302647 521.67208093 C-87.24369008 518.1712391 -87.24439249 514.67039728 -87.24515181 511.16955546 C-87.2521719 478.34619939 -87.23669733 445.52288847 -87.21052835 412.69954389 C-87.18741011 383.5482576 -87.18202706 354.39702092 -87.19226074 325.24572754 C-87.19486283 317.77936238 -87.19744786 310.31299722 -87.19985867 302.846632 C-87.20015611 301.92738647 -87.20045356 301.00814094 -87.20076002 300.06103948 C-87.208377 275.68874965 -87.20196096 251.31646387 -87.19116265 226.94417584 C-87.19001486 224.32134847 -87.18887168 221.69852111 -87.18773582 219.07569374 C-87.18698058 217.33584567 -87.18621493 215.5959976 -87.18543881 213.85614953 C-87.1797839 200.87444124 -87.1811081 187.89274579 -87.18566704 174.91103745 C-87.19077736 160.1496105 -87.18491058 145.38823159 -87.16477274 130.62681662 C-87.15379615 122.36864113 -87.15098419 114.11056006 -87.16006127 105.85238172 C-87.16590324 99.68421049 -87.15603508 93.51615783 -87.14006162 87.34800662 C-87.13601729 84.85428761 -87.13701673 82.36055424 -87.14358049 79.86684059 C-87.1517449 76.47458646 -87.14140042 73.08286179 -87.12653255 69.6906414 C-87.13327021 68.72505588 -87.14000786 67.75947035 -87.14694968 66.76462466 C-87.06000978 56.49057603 -84.62142333 46.95275297 -79.68371582 37.94543457 C-79.29159912 37.22291504 -78.89948242 36.50039551 -78.4954834 35.75598145 C-69.68943048 20.12711096 -55.4080197 8.7898177 -38.32982302 3.4371686 C-25.60099369 -0.07915508 -13.12500886 -0.05344744 0 0 Z " fill="#FEFEFE" transform="translate(449.7462158203125,915.4920654296875)"/>
<path d="M0 0 C183.15 0 366.3 0 555 0 C555 104.61 555 209.22 555 317 C371.85 317 188.7 317 0 317 C0 212.39 0 107.78 0 0 Z " fill="#FFB800" transform="translate(448,1127)"/>
<path d="M0 0 C3 0 3 0 4.54296875 1.50390625 C5.08566406 2.18324219 5.62835937 2.86257812 6.1875 3.5625 C9.25345108 7.23127022 12.51460614 10.31913065 16.15234375 13.41015625 C18.56439486 15.48564209 20.78090911 17.72093368 23 20 C23.825 20.825 24.65 21.65 25.5 22.5 C28 25 30.5 27.5 33 30 C33.77920933 30.76902271 34.55841866 31.53804543 35.36124039 32.33037186 C37.89639234 34.89518032 40.31161019 37.53052598 42.72015381 40.21405029 C50.35334718 48.61337531 58.44114439 56.56493853 66.47753906 64.57519531 C68.22169997 66.31743352 69.96563073 68.05990215 71.70935059 69.80258179 C75.44277992 73.53286763 79.17769475 77.2616562 82.91394806 80.98911285 C88.32384951 86.38637175 93.73043205 91.78694591 99.13615653 97.18838796 C107.92071211 105.96590121 116.70713565 114.74154184 125.49511719 123.515625 C126.01938993 124.03906993 126.54366267 124.56251486 127.08382246 125.10182175 C130.80583249 128.81793039 134.5279096 132.53397185 138.25 136.25 C142.50883757 140.50190454 146.7676416 144.75384267 151.02636719 149.00585938 C151.55120462 149.52986868 152.07604205 150.05387799 152.61678365 150.59376636 C161.37993639 159.34321502 170.14111118 168.09464171 178.9008882 176.84747005 C184.29145882 182.23357354 189.68379429 187.61789832 195.07846162 192.99989864 C199.21099668 197.1229821 203.34096686 201.24862807 207.47001648 205.37520218 C209.15938332 207.0627009 210.84961246 208.74933689 212.54077911 210.43503189 C214.85440982 212.74141365 217.16489889 215.05089932 219.47467041 217.36114502 C220.139366 218.02224565 220.80406159 218.68334628 221.48889947 219.36448026 C224.60476063 222.48716905 227.61024908 225.65654063 230.49510384 228.99468327 C234.02865412 233.08312093 237.77551061 236.91234185 241.60366821 240.72392273 C242.33707723 241.45818617 243.07048625 242.19244961 243.82611978 242.94896346 C246.26403927 245.38851921 248.70549557 247.82450311 251.14697266 250.26049805 C252.90363185 252.01687493 254.66007041 253.77347252 256.41630554 255.53027344 C260.18850416 259.3026992 263.96222217 263.07359486 267.73735428 266.84308434 C273.20088947 272.29845926 278.66162979 277.7566249 284.12171273 283.21545479 C292.98934124 292.08089847 301.85919663 300.94411065 310.73046875 309.8059082 C319.33157375 318.39783683 327.93163044 326.9908125 336.53027344 335.58520508 C337.06027957 336.11494848 337.59028569 336.64469189 338.13635261 337.19048812 C340.79616867 339.84899877 343.45596392 342.50753025 346.11574864 345.16607225 C364.44029443 363.48201438 382.76704549 381.79574733 401.09608459 400.10719299 C401.86868634 400.87905514 402.64128808 401.65091729 403.43730199 402.4461692 C404.8589341 403.8664278 406.28057919 405.2866734 407.70224059 406.70690268 C411.13573324 410.13702988 414.56851799 413.56786107 418 417 C418.825 417.825 419.65 418.65 420.5 419.5 C426.33333333 425.33333333 432.16666667 431.16666667 438 437 C438.845625 437.825 439.69125 438.65 440.5625 439.5 C443 442 443 442 444.8125 444.375 C447.20684416 447.24821299 449.81983165 449.49994467 452.70703125 451.86328125 C454.68313183 453.70472421 456.37336326 455.55815539 458.1231842 457.60731506 C462.00718775 462.07007474 466.12543471 466.25232653 470.32202148 470.41967773 C471.12283646 471.21903244 471.92365143 472.01838715 472.74873352 472.84196472 C474.47342941 474.56287825 476.19927877 476.28263641 477.92617607 478.00134087 C480.65532916 480.71766827 483.38129134 483.4371621 486.10646057 486.15748596 C491.88066801 491.92030762 497.65879334 497.6791905 503.4375 503.4375 C510.15871741 510.13506544 516.87824665 516.83430556 523.5936451 523.53770638 C526.286191 526.22374514 528.98171674 528.90676947 531.67735291 531.58970642 C533.31296155 533.22168576 534.94843177 534.85380385 536.58374023 536.48608398 C537.33950348 537.23668091 538.09526672 537.98727783 538.87393188 538.76062012 C539.89369865 539.78028114 539.89369865 539.78028114 540.93406677 540.82054138 C541.52967124 541.41392524 542.12527571 542.00730909 542.73892879 542.61867428 C544 544 544 544 544 545 C490.39345714 545.1146068 436.78692672 545.20263071 383.1802853 545.25532665 C376.84219521 545.26157969 370.50410536 545.26805135 364.16601562 545.2746582 C362.90429041 545.27596976 361.6425652 545.27728131 360.34260589 545.2786326 C339.95042432 545.30035063 319.55831369 545.33975221 299.16617411 545.38576398 C278.22015279 545.43262905 257.27416846 545.46031659 236.32809687 545.47044247 C223.41781988 545.47728082 210.50774348 545.49882793 197.59752828 545.53958233 C188.72767742 545.56614493 179.85792927 545.57397059 170.98804158 545.56750689 C165.88125909 545.56432492 160.77482549 545.5689761 155.66810608 545.59602737 C128.58073715 545.73223999 103.93356341 544.76578295 79 533 C78.10925781 532.61328125 77.21851563 532.2265625 76.30078125 531.828125 C54.74335737 521.99366386 35.81058972 503.66783969 23 484 C22.43925781 483.19691406 21.87851562 482.39382813 21.30078125 481.56640625 C17.49421296 475.94637172 14.51919576 470.11596859 11.75 463.9375 C11.4207251 463.20595703 11.0914502 462.47441406 10.75219727 461.72070312 C6.84108964 452.74104791 4.56028981 443.62637541 2.875 434 C2.70613281 433.07960938 2.53726563 432.15921875 2.36328125 431.2109375 C0.2653368 419.48227167 -0.14284336 408.00386559 -0.12025452 396.11837769 C-0.12069105 394.40620442 -0.12156748 392.69403122 -0.12284368 390.98185837 C-0.12507244 386.29559328 -0.12108956 381.60935119 -0.11606562 376.92308903 C-0.11173802 371.86254949 -0.11320918 366.8020112 -0.1139679 361.74147034 C-0.11449167 352.97990488 -0.11136019 344.21834688 -0.10573006 335.45678329 C-0.09759518 322.78910873 -0.0949978 310.12143777 -0.09374207 297.45376088 C-0.09155467 276.90016146 -0.08490306 256.34656601 -0.07543945 235.79296875 C-0.06625725 215.82975281 -0.05918037 195.86653794 -0.05493164 175.90332031 C-0.05466892 174.67231837 -0.05440619 173.44131644 -0.05413551 172.17301141 C-0.05283045 165.99729633 -0.05156675 159.82158125 -0.05032361 153.64586616 C-0.03996073 102.43057469 -0.02235091 51.21528754 0 0 Z " fill="#FEDA74" transform="translate(907,0)"/>
<path d="M0 0 C0.33 0 0.66 0 1 0 C2.00955999 21.05165559 -0.88952211 40.84303621 -10 60 C-10.31420898 60.66660645 -10.62841797 61.33321289 -10.95214844 62.02001953 C-27.95012263 97.55450672 -58.28541479 122.80530809 -95.0859375 136.0859375 C-99.65414907 137.51886177 -104.28045929 138.25751774 -109 139 C-109.70273567 139.17048068 -110.40547133 139.34096137 -111.12950202 139.51660813 C-114.90330071 140.15211584 -118.62135565 140.13862174 -122.43578023 140.12880117 C-123.71489692 140.13146368 -123.71489692 140.13146368 -125.01985436 140.13417998 C-127.89638085 140.13893605 -130.77285754 140.13654308 -133.64938641 140.13422108 C-135.73380011 140.13617342 -137.81821344 140.13856204 -139.90262619 140.14134905 C-145.66689366 140.14776694 -151.43114722 140.14790925 -157.19541758 140.14707164 C-163.45293842 140.14724079 -169.71045423 140.15314298 -175.96797258 140.1583125 C-186.947493 140.16656431 -197.92700914 140.17106473 -208.90653229 140.17303848 C-220.69063052 140.17516618 -232.47472503 140.17942415 -244.25882149 140.1862812 C-245.00250401 140.18671182 -245.74618653 140.18714243 -246.51240488 140.1875861 C-249.54122343 140.18934443 -252.57004198 140.19111407 -255.59886052 140.19289912 C-292.3306987 140.21450497 -329.06253762 140.22537913 -365.7943807 140.23437535 C-377.70611182 140.23730903 -389.61784276 140.24067888 -401.52957368 140.24434257 C-402.3698349 140.24460086 -403.21009612 140.24485915 -404.0758198 140.24512527 C-407.47519597 140.24617149 -410.87457215 140.24721991 -414.27394832 140.24827109 C-472.42511084 140.26623709 -530.57627365 140.28161585 -588.72743855 140.28903012 C-593.29576172 140.28961409 -597.86408489 140.29021136 -602.43240805 140.29080774 C-603.7917259 140.29098492 -603.7917259 140.29098492 -605.17850472 140.29116567 C-614.35972889 140.29236306 -623.54095306 140.29357182 -632.72217722 140.29479821 C-634.56304196 140.29504344 -636.4039067 140.2952873 -638.24477143 140.29552978 C-697.35652757 140.30331817 -756.46826385 140.32569783 -815.58001131 140.3582062 C-858.04958547 140.38155438 -900.51915568 140.40310489 -942.98873615 140.41021252 C-943.86230785 140.41035954 -944.73587954 140.41050656 -945.6359231 140.41065803 C-964.81400534 140.41384301 -983.99208753 140.4158938 -1003.17017 140.41688558 C-1010.8869433 140.41730032 -1018.60371659 140.41785522 -1026.32048988 140.41844749 C-1027.16503937 140.41850816 -1028.00958886 140.41856883 -1028.87973075 140.41863134 C-1056.07607942 140.42064671 -1083.27240464 140.4348807 -1110.46874513 140.4553925 C-1137.86796462 140.47598398 -1165.26715702 140.4838621 -1192.66638347 140.47431473 C-1196.45524385 140.47299633 -1200.24410426 140.47181827 -1204.03296471 140.47072411 C-1204.77566559 140.47050426 -1205.51836648 140.47028441 -1206.28357345 140.4700579 C-1218.02889811 140.46694736 -1229.77417082 140.47725537 -1241.51948345 140.49319966 C-1253.07773149 140.50861028 -1264.63588355 140.50934618 -1276.19413879 140.49565142 C-1282.37339071 140.48874253 -1288.55246442 140.48812742 -1294.73170056 140.50521151 C-1300.35969076 140.52064465 -1305.98735993 140.51746296 -1311.61534077 140.49980123 C-1313.63242024 140.49666654 -1315.64952444 140.50014937 -1317.66657555 140.51129298 C-1332.40825947 140.58739279 -1347.69611094 139.84944691 -1361.078125 132.9296875 C-1363.11470557 131.89197636 -1363.11470557 131.89197636 -1365.8671875 131.05859375 C-1373.52915275 128.46957557 -1380.71673916 124.38718903 -1387.4765625 119.98046875 C-1389.04331507 118.9333437 -1389.04331507 118.9333437 -1391 118 C-1391 117.34 -1391 116.68 -1391 116 C-1391.763125 115.731875 -1392.52625 115.46375 -1393.3125 115.1875 C-1395.91752101 114.0364442 -1397.24363005 113.19546244 -1399 111 C-1399.33 110.01 -1399.66 109.02 -1400 108 C-1400.99 107.505 -1400.99 107.505 -1402 107 C-1402 106.34 -1402 105.68 -1402 105 C-1402.99 104.67 -1403.98 104.34 -1405 104 C-1405 103.34 -1405 102.68 -1405 102 C-1405.86431641 101.63261719 -1405.86431641 101.63261719 -1406.74609375 101.2578125 C-1425.55540644 90.76110767 -1436.28384578 61.13788146 -1443 42 C-1443.31839844 41.14792969 -1443.63679688 40.29585937 -1443.96484375 39.41796875 C-1448.32408578 27.38125568 -1448.49715353 14.65055844 -1449 2 C-1446.70030959 4.29969041 -1446.66541804 4.99061138 -1446.2890625 8.11328125 C-1446.18110352 8.9424707 -1446.07314453 9.77166016 -1445.96191406 10.62597656 C-1445.85073242 11.5125293 -1445.73955078 12.39908203 -1445.625 13.3125 C-1440.83189808 47.6935542 -1420.9451089 79.35615412 -1393.33935547 100.2734375 C-1380.54902602 109.57006025 -1367.11342458 116.44192342 -1352 121 C-1350.78570313 121.38800781 -1349.57140625 121.77601562 -1348.3203125 122.17578125 C-1333.41263425 126.7410502 -1319.06183357 127.291532 -1303.62523746 127.25168228 C-1301.57206151 127.25377132 -1299.51888628 127.25673588 -1297.4657127 127.26049101 C-1291.83013944 127.26826499 -1286.19463489 127.26362658 -1280.55906278 127.25693511 C-1274.42546767 127.25185665 -1268.291883 127.25838356 -1262.15828937 127.26342177 C-1251.41039386 127.27064409 -1240.66252413 127.27049428 -1229.91462898 127.26532745 C-1218.38587074 127.25981906 -1206.85712428 127.25866899 -1195.32836533 127.26280212 C-1194.59937166 127.26306047 -1193.87037799 127.26331881 -1193.1192936 127.26358499 C-1190.15006564 127.26465157 -1187.1808377 127.26574899 -1184.21160977 127.26688554 C-1156.57398376 127.27745711 -1128.93636564 127.27818474 -1101.29873848 127.27259064 C-1100.48024346 127.27242505 -1099.66174845 127.27225946 -1098.81845055 127.27208885 C-1097.99864206 127.27192299 -1097.17883357 127.27175713 -1096.3341824 127.27158624 C-1071.35409873 127.26653907 -1046.37401832 127.26523747 -1021.39393425 127.26763153 C-1019.7208859 127.26778649 -1018.04783754 127.2679408 -1016.37478919 127.26809447 C-1009.65142027 127.26871541 -1002.92805136 127.26935274 -996.20468244 127.270014 C-977.41021007 127.27184798 -958.61573768 127.27298921 -939.82126522 127.27358627 C-938.96541961 127.27361356 -938.10957399 127.27364086 -937.22779366 127.27366897 C-909.95822314 127.27448749 -882.68865376 127.27223398 -855.4190836 127.26788712 C-854.09245798 127.26767637 -854.09245798 127.26767637 -852.73903185 127.26746136 C-838.37685774 127.26517149 -824.01468366 127.26273256 -809.65250958 127.26028102 C-752.69371092 127.25056885 -695.73492166 127.25101882 -638.77612305 127.26074219 C-624.4223687 127.26318459 -610.06861434 127.2656067 -595.71485996 127.26788712 C-594.83103243 127.26802801 -593.9472049 127.26816891 -593.03659472 127.26831407 C-565.79623897 127.27262687 -538.555884 127.27445491 -511.31552792 127.27358627 C-510.46029803 127.2735591 -509.60506815 127.27353194 -508.72392221 127.27350394 C-489.94968315 127.27287897 -471.17544417 127.27161165 -452.40120519 127.26976527 C-445.68354706 127.26910699 -438.96588892 127.26848083 -432.24823078 127.26786385 C-430.5770693 127.26770907 -428.90590782 127.26755161 -427.23474634 127.26739145 C-402.2623608 127.26500484 -377.28997894 127.26703606 -352.31759387 127.27208885 C-351.49918165 127.27225444 -350.68076943 127.27242003 -349.83755684 127.27259064 C-348.61220553 127.27283868 -348.61220553 127.27283868 -347.36209966 127.27309174 C-319.80276144 127.27860955 -292.24343268 127.27657621 -264.68409581 127.26602915 C-261.72374246 127.26492446 -258.7633891 127.26385105 -255.80303574 127.26280212 C-254.71326372 127.2624115 -254.71326372 127.2624115 -253.60147611 127.26201299 C-242.10497478 127.25807063 -230.60848523 127.26081211 -219.11198497 127.26634014 C-207.80329383 127.27163513 -196.49462744 127.26959726 -185.18593703 127.26031196 C-179.13849945 127.25554894 -173.09110645 127.25393915 -167.04367024 127.26112393 C-161.53894424 127.26759728 -156.03430228 127.26482123 -150.52958237 127.2547626 C-148.5537535 127.25275328 -146.57791762 127.25406728 -144.60209433 127.25917448 C-129.8930478 127.29448801 -115.93491932 126.3254374 -101.625 122.625 C-100.40876953 122.33109375 -100.40876953 122.33109375 -99.16796875 122.03125 C-93.46774794 120.59023418 -88.29621181 118.53636641 -83 116 C-82.00419922 115.53424561 -82.00419922 115.53424561 -80.98828125 115.05908203 C-50.67890267 100.74885585 -29.63879957 79.39946434 -14 50 C-13.42894531 48.9275 -12.85789062 47.855 -12.26953125 46.75 C-5.93116219 33.97549783 -2.89248611 20.01087225 -1.359375 5.90625 C-1 3 -1 3 0 0 Z " fill="#D79400" transform="translate(1450,1860)"/>
<path d="M0 0 C1.14650289 -0.00224729 2.29300578 -0.00449459 3.47425118 -0.00680998 C4.7317577 -0.00418297 5.98926422 -0.00155595 7.284877 0.00115067 C8.64140375 0.00041098 9.99793031 -0.00076766 11.35445634 -0.00234583 C15.09760171 -0.00542038 18.84072 -0.00223514 22.58386336 0.0019323 C26.65017873 0.00536144 30.71649131 0.00299667 34.78280723 0.00135481 C41.91455259 -0.00072116 49.04628962 0.00092866 56.17803401 0.00499302 C66.78273258 0.01101985 77.38742588 0.01132959 87.99212586 0.01045103 C105.82958601 0.00913604 123.66704245 0.01248269 141.50450152 0.01846844 C159.17073986 0.02438156 176.83697665 0.0282336 194.50321597 0.02932125 C195.60085892 0.02938999 196.69850187 0.02945873 197.82940673 0.02952956 C203.40357751 0.02986788 208.97774829 0.03016927 214.55191907 0.03045643 C254.05354171 0.03255792 293.55516234 0.03929828 333.05678385 0.04875904 C371.43666656 0.05794055 409.81654871 0.0650256 448.19643229 0.06926686 C449.37906694 0.06939838 450.5617016 0.06952991 451.78017366 0.06966542 C463.6564683 0.07098392 475.53276294 0.07225974 487.40905758 0.07350428 C511.60333449 0.07604062 535.79761137 0.07886188 559.99188823 0.08185536 C561.104349 0.08199265 562.21680978 0.08212994 563.36298149 0.08227139 C637.67554861 0.09147504 711.98811461 0.10734136 786.30068034 0.1241985 C786.30068034 4.0841985 786.30068034 8.0441985 786.30068034 12.1241985 C783.8234481 12.12623329 783.8234481 12.12623329 781.29617077 12.12830919 C708.51313288 12.18822343 635.73009733 12.25059779 562.94707316 12.32552296 C561.29423562 12.32722339 561.29423562 12.32722339 559.60800741 12.32895818 C535.66096357 12.3536096 511.71392022 12.37870247 487.76687732 12.40425011 C476.02326226 12.41677597 464.27964711 12.42920427 452.5360319 12.44158131 C451.3674007 12.44281463 450.1987695 12.44404796 448.99472523 12.44531866 C411.11566913 12.48524891 373.23661067 12.51873736 335.35754563 12.5488854 C296.43206299 12.57990032 257.5065919 12.61741376 218.58112359 12.66310462 C213.08324017 12.66955502 207.58535666 12.67593113 202.08747309 12.682262 C200.46437874 12.68413446 200.46437874 12.68413446 198.8084946 12.68604474 C181.38990818 12.70594835 163.97132305 12.71900098 146.5527287 12.72949177 C129.04139216 12.74018462 111.53007477 12.75809475 94.0187531 12.78336553 C83.61484985 12.79816036 73.21097593 12.80742786 62.80706207 12.80876533 C55.85423129 12.81020477 48.90143353 12.818867 41.94861776 12.83335442 C37.98895044 12.84139973 34.02934793 12.84634998 30.06967281 12.84247731 C26.4603264 12.83900937 22.85111366 12.8448396 19.24178988 12.85777915 C17.34670604 12.86226091 15.45160666 12.85709772 13.55652601 12.85142583 C3.2090743 12.90458778 -6.88339111 13.69846766 -16.69931966 17.1241985 C-17.96517904 17.43099537 -19.23103841 17.73779225 -20.53525716 18.053886 C-43.00270485 23.54545484 -62.07444167 36.40463564 -78.69931966 52.1241985 C-79.45986654 52.83189381 -80.22041341 53.53958912 -81.00400716 54.26872975 C-105.72816728 78.00905651 -115.94449465 108.91527294 -119.69931966 142.1241985 C-120.02931966 142.1241985 -120.35931966 142.1241985 -120.69931966 142.1241985 C-121.81061944 116.37965691 -117.87696125 90.22792318 -103.69931966 68.1241985 C-103.36593587 67.58762623 -103.03255208 67.05105397 -102.68906575 66.49822193 C-95.54566482 55.04048974 -87.26767675 45.64749268 -77.69931966 36.1241985 C-76.89107747 35.29404225 -76.08283529 34.463886 -75.25010091 33.6085735 C-57.49804973 16.31867372 -34.53060209 6.56760978 -10.69931966 1.1241985 C-9.94877014 0.95191588 -9.19822061 0.77963327 -8.42492716 0.60212997 C-5.557346 0.09930361 -2.91056439 -0.00045973 0 0 Z " fill="#FEC532" transform="translate(120.6993196606636,-0.12419849634170532)"/>
<path d="M0 0 C0.33 0 0.66 0 1 0 C1.06993164 0.58265625 1.13986328 1.1653125 1.21191406 1.765625 C5.62494691 37.86451753 16.85705668 64.82503059 41 92 C41.64324219 92.74121094 42.28648437 93.48242188 42.94921875 94.24609375 C52.82148893 104.91701949 67.53074457 114.61529766 81 120 C82.29478662 120.56000689 83.58903426 121.12126114 84.8828125 121.68359375 C108.91120603 131.78594723 132.64664872 131.59529887 158.28360569 131.54880548 C163.47145696 131.54381548 168.65923697 131.56200104 173.84706116 131.57722473 C182.81252558 131.60043077 191.77790935 131.60929 200.74340248 131.60811615 C213.7056258 131.6064402 226.66774226 131.62684974 239.62993696 131.65247145 C260.66547685 131.69345957 281.70099739 131.71684171 302.73657227 131.72900391 C323.15814064 131.74084914 343.57967264 131.76107812 364.0012207 131.79248047 C365.26218963 131.79441657 366.52315857 131.79635267 367.82233868 131.79834744 C374.14890178 131.80811268 380.47546462 131.81804167 386.80202734 131.82805204 C439.20133374 131.91075078 491.60064162 131.96481427 544 132 C544 136.29 544 140.58 544 145 C490.60539754 145.045793 437.21079706 145.08102712 383.81617882 145.10213066 C377.51026502 145.10463203 371.20435125 145.10722068 364.8984375 145.10986328 C363.64306103 145.1103879 362.38768455 145.11091252 361.09426637 145.11145304 C340.77619235 145.12015202 320.45812967 145.13591921 300.14006238 145.15430559 C279.28674664 145.17301874 258.43343684 145.18411972 237.58011305 145.18817699 C224.71594471 145.19091911 211.85180841 145.1995752 198.98764993 145.21583293 C190.16227547 145.22641726 181.33691753 145.22959734 172.51153718 145.22700275 C167.42231118 145.22572373 162.33314111 145.22766342 157.24392509 145.23841095 C152.57762992 145.24819303 147.91142794 145.24860292 143.24512835 145.24179779 C141.56386563 145.24095757 139.88259692 145.24345242 138.20134585 145.24976636 C124.91668243 145.29672471 112.2603709 144.29510977 99.4375 140.5 C98.68404297 140.28730469 97.93058594 140.07460938 97.15429688 139.85546875 C94.05971297 138.96819139 91.12283534 138.05271613 88.16015625 136.78125 C85.86757407 135.69968209 85.86757407 135.69968209 83 137 C83 136.34 83 135.68 83 135 C80.80476635 133.88940898 78.60077753 132.81373573 76.37109375 131.7734375 C68.93303678 128.22773258 62.52749899 124.00275495 56 119 C55.18660156 118.41476562 54.37320313 117.82953125 53.53515625 117.2265625 C52.80167969 116.69804688 52.06820312 116.16953125 51.3125 115.625 C50.66925781 115.16351562 50.02601563 114.70203125 49.36328125 114.2265625 C48.91339844 113.82179688 48.46351563 113.41703125 48 113 C48 112.34 48 111.68 48 111 C47.42121094 110.74347656 46.84242188 110.48695313 46.24609375 110.22265625 C24.72382799 98.50705767 11.08255942 66.15609102 4.39453125 43.95703125 C0.16328624 29.25976908 -0.41494046 15.25065794 0 0 Z " fill="#D89603" transform="translate(907,413)"/>
<path d="M0 0 C0.66 0 1.32 0 2 0 C2.20753906 1.15113281 2.41507812 2.30226563 2.62890625 3.48828125 C7.66033138 30.01582303 18.57570233 54.27642704 36 75 C36.62261719 75.74636719 37.24523438 76.49273438 37.88671875 77.26171875 C41.02964998 80.95006104 44.18313449 83.99277263 48 87 C48 87.66 48 88.32 48 89 C48.99 89.33 49.98 89.66 51 90 C50.505 91.485 50.505 91.485 50 93 C48.9790625 91.948125 48.9790625 91.948125 47.9375 90.875 C45.97009449 88.89106168 43.92853244 87.12188848 41.75 85.375 C36.80999921 81.18348418 32.96476472 76.0937597 29 71 C28.22011719 70.00097656 27.44023437 69.00195312 26.63671875 67.97265625 C20.37128855 59.79074152 14.56988375 52.06537803 12 42 C11.34 41.67 10.68 41.34 10 41 C8.58371657 37.92051946 7.61787626 34.65604906 6.5625 31.4375 C6.25046631 30.49398682 5.93843262 29.55047363 5.61694336 28.57836914 C2.64596832 19.33767687 0 9.76713094 0 0 Z " fill="#F6B30B" transform="translate(0,1878)"/>
<path d="M0 0 C0.33 0 0.66 0 1 0 C1.3285038 12.4022819 1.4468388 23.97709801 -2 36 C-2.33 36 -2.66 36 -3 36 C-3 33.03 -3 30.06 -3 27 C-3.66 27 -4.32 27 -5 27 C-4.80664062 25.97261719 -4.61328125 24.94523437 -4.4140625 23.88671875 C-2.91811393 15.9288496 -1.43511663 7.96911822 0 0 Z " fill="#E4A105" transform="translate(1450,1860)"/>
<path d="M0 0 C0.33 0 0.66 0 1 0 C1.47992643 3.49989625 1.95880162 6.99993559 2.4375 10.5 C2.57220703 11.48226563 2.70691406 12.46453125 2.84570312 13.4765625 C3.59791919 18.98058249 4.32389124 24.48610333 5 30 C3.5393715 27.35261084 3 26.10551666 3 23 C2.01 22.67 1.02 22.34 0 22 C0 14.74 0 7.48 0 0 Z " fill="#E5A91E" transform="translate(907,413)"/>
<path d="M0 0 C0.99 0.495 0.99 0.495 2 1 C2.4140625 3.28515625 2.4140625 3.28515625 2.625 6.0625 C2.69976562 6.98160156 2.77453125 7.90070313 2.8515625 8.84765625 C2.92503906 9.91306641 2.92503906 9.91306641 3 11 C2.67 11 2.34 11 2 11 C2 15.62 2 20.24 2 25 C1.34 25 0.68 25 0 25 C0 16.75 0 8.5 0 0 Z " fill="#F5AF01" transform="translate(0,1853)"/>
<path d="M0 0 C0.33 0 0.66 0 1 0 C1.13794954 7.06608191 0.74805717 13.97360585 0 21 C-0.99 21 -1.98 21 -3 21 C-2.69152766 18.06202558 -2.37839777 15.12467718 -2.0625 12.1875 C-1.97548828 11.35412109 -1.88847656 10.52074219 -1.79882812 9.66210938 C-1.71181641 8.85966797 -1.62480469 8.05722656 -1.53515625 7.23046875 C-1.456604 6.49207764 -1.37805176 5.75368652 -1.29711914 4.99291992 C-1 3 -1 3 0 0 Z " fill="#DE9900" transform="translate(1450,1860)"/>
<path d="M0 0 C2.93879484 1.35236577 5.29232911 2.89942659 7.75 5 C8.67039062 5.7734375 8.67039062 5.7734375 9.609375 6.5625 C11 8 11 8 11 10 C11.99 10.33 12.98 10.66 14 11 C13.67 11.99 13.34 12.98 13 14 C12.319375 13.29875 11.63875 12.5975 10.9375 11.875 C8.27104021 9.18561935 5.40237504 6.80191036 2.453125 4.4296875 C1 3 1 3 0 0 Z " fill="#FABA17" transform="translate(37,1957)"/>
<path d="M0 0 C3 3 3 3 3.109375 5.1640625 C2.99078125 5.97617188 2.8721875 6.78828125 2.75 7.625 C2.63269531 8.5015625 2.51539063 9.378125 2.39453125 10.28125 C2.26433594 11.1784375 2.13414063 12.075625 2 13 C1.80663048 14.70767891 1.61867727 16.41598455 1.4375 18.125 C1.2209375 20.043125 1.2209375 20.043125 1 22 C0.67 22 0.34 22 0 22 C0 14.74 0 7.48 0 0 Z " fill="#FEC124" transform="translate(0,120)"/>
<path d="M0 0 C0.33 0 0.66 0 1 0 C1.02721176 1.89575251 1.04649136 3.79161979 1.0625 5.6875 C1.07410156 6.74324219 1.08570313 7.79898437 1.09765625 8.88671875 C1.00865425 11.72410262 0.64939838 14.2438919 0 17 C-1.37562854 15.71034824 -2.70766393 14.37310707 -4 13 C-4 12.34 -4 11.68 -4 11 C-3.01 10.67 -2.02 10.34 -1 10 C-0.67 6.7 -0.34 3.4 0 0 Z " fill="#EFAC09" transform="translate(1450,1870)"/>
<path d="M0 0 C0.66 0.33 1.32 0.66 2 1 C-0.64 4.63 -3.28 8.26 -6 12 C-6.33 11.01 -6.66 10.02 -7 9 C-5.56640625 6.73828125 -5.56640625 6.73828125 -3.5625 4.3125 C-2.90378906 3.50425781 -2.24507812 2.69601562 -1.56640625 1.86328125 C-1.04949219 1.24839844 -0.53257813 0.63351562 0 0 Z " fill="#F6B512" transform="translate(1428,1937)"/>
<path d="M0 0 C0.66 0 1.32 0 2 0 C3.28317892 3.84953676 3.06643637 6.94738135 3 11 C0.43383368 7.15075052 0.44902324 4.5650696 0 0 Z " fill="#FABA16" transform="translate(2,1890)"/>
<path d="" fill="#FECB3D" transform="translate(0,0)"/>
</svg>
