<?xml version="1.0" encoding="utf-8"?>
<!-- Generator: Adobe Illustrator 27.2.0, SVG Export Plug-In . SVG Version: 6.00 Build 0)  -->
<svg version="1.1" id="Layer_1" xmlns="http://www.w3.org/2000/svg" xmlns:xlink="http://www.w3.org/1999/xlink" x="0px" y="0px"
	 viewBox="0 0 512 512" style="enable-background:new 0 0 512 512;" xml:space="preserve">
<style type="text/css">
	.st0{fill-rule:evenodd;clip-rule:evenodd;}
	.st1{fill-rule:evenodd;clip-rule:evenodd;fill:#62D84E;}
</style>
<g>
	<path class="st0" d="M123.2,241.66c-5.15-0.01-10.15,1.79-14.11,5.08v-4.57H96.22v50.13h13.39v-32.05
		c2.91-3.79,7.37-6.07,12.15-6.21c1.83-0.09,3.65,0.18,5.37,0.81V242C125.83,241.78,124.52,241.66,123.2,241.66"/>
	<path class="st0" d="M6.49,277.01c3.82,3.23,8.67,4.99,13.68,4.96c3.6,0,6.38-1.76,6.38-4.24c0-7.55-24.2-4.86-24.2-20.98
		c0-9.61,9.27-15.61,19.15-15.61c6,0.02,11.87,1.78,16.88,5.08l-6.26,9.7c-2.76-2.1-6.11-3.29-9.58-3.41c-3.71,0-6.8,1.45-6.8,4.03
		c0,6.51,24.2,3.93,24.2,21.29c0,9.61-9.38,15.5-19.87,15.5c-7.23-0.07-14.26-2.41-20.08-6.7L6.49,277.01z"/>
	<path class="st0" d="M90.51,266.77c0-13.95-9.77-25.63-23.58-25.63c-14.83,0-24.3,12.19-24.3,26.15
		c-0.59,13.8,10.13,25.47,23.93,26.05c0.74,0.03,1.49,0.03,2.23-0.01c7.81,0.1,15.28-3.17,20.49-8.99l-7.62-7.65
		c-3.23,3.56-7.76,5.65-12.56,5.79c-6.93,0.23-12.84-4.97-13.5-11.87h34.6C90.41,269.35,90.51,268.06,90.51,266.77z M56.21,260.78
		c0.99-5.12,5.49-8.82,10.71-8.79c5.04,0.01,9.29,3.78,9.89,8.79H56.21z"/>
	<polygon class="st0" points="159.03,272.77 172.73,242.17 186.63,242.17 163.67,292.31 154.4,292.31 131.44,242.17 145.34,242.17 	
		"/>
	<path class="st0" d="M197.87,218.63c4.75,0.09,8.53,4.01,8.44,8.75c-0.09,4.75-4.01,8.53-8.75,8.44c-4.69-0.09-8.44-3.91-8.44-8.6
		c0-4.75,3.85-8.6,8.6-8.6L197.87,218.63"/>
	<rect x="191.18" y="242.17" width="13.39" height="50.13"/>
	<path class="st0" d="M259.91,282.07c-5.15,7.36-13.69,11.61-22.67,11.27c-14.41,0.37-26.4-11.02-26.76-25.44
		c-0.37-14.41,11.02-26.4,25.44-26.76c0.47-0.01,0.95-0.01,1.42,0c8.17-0.06,15.92,3.64,21.01,10.03l-9.47,8.37
		c-2.68-3.71-6.96-5.93-11.53-6c-7.41-0.03-13.44,5.95-13.47,13.36l0,0.39c-0.24,7.3,5.49,13.41,12.78,13.65l1.02-0.01
		c4.83-0.1,9.3-2.57,11.94-6.61L259.91,282.07z"/>
	<path class="st0" d="M308.54,284.35c-5.21,5.82-12.68,9.09-20.49,8.99c-13.8,0.64-25.51-10.02-26.15-23.82
		c-0.03-0.74-0.04-1.48,0-2.22c0-13.96,9.47-26.15,24.3-26.15c13.8,0,23.58,11.68,23.58,25.63c0.01,1.28-0.09,2.56-0.31,3.83h-34.6
		c0.65,6.9,6.56,12.11,13.49,11.89c4.8-0.14,9.34-2.23,12.57-5.79L308.54,284.35z M296.08,260.78c-0.6-5.01-4.84-8.78-9.88-8.79
		c-5.22-0.03-9.72,3.66-10.71,8.79H296.08z"/>
	<path class="st0" d="M315.09,292.31v-50.13h12.87v4.03c3.96-3.29,8.96-5.08,14.11-5.06c6.68-0.02,13.02,2.94,17.3,8.06
		c3.85,5.01,5.69,11.29,5.15,17.59v25.51h-13.39v-26.58c0.38-3.42-0.71-6.84-2.99-9.41c-2.04-1.89-4.74-2.89-7.52-2.79
		c-4.78,0.14-9.24,2.42-12.15,6.2v32.57H315.09z"/>
	<path class="st1" d="M398.99,241.14c-16.19-0.03-29.34,13.06-29.37,29.25c-0.02,8.08,3.3,15.81,9.18,21.37
		c2.07,1.97,5.27,2.14,7.53,0.39c7.42-5.52,17.57-5.52,24.99,0c2.28,1.75,5.51,1.56,7.57-0.44c11.74-11.14,12.23-29.7,1.09-41.44
		C414.5,244.51,406.93,241.21,398.99,241.14 M398.82,285.08c-7.85,0.21-14.38-5.98-14.59-13.83l0-0.76
		c0-8.06,6.53-14.59,14.59-14.59s14.59,6.53,14.59,14.59c0.21,7.85-5.98,14.38-13.83,14.59L398.82,285.08"/>
	<polygon class="st0" points="454.5,292.31 444.53,292.31 424.65,242.17 438.01,242.17 448.91,270.82 459.6,242.17 470.77,242.17 
		481.37,270.82 492.36,242.17 505.73,242.17 485.85,292.31 475.88,292.31 465.19,263.76 	"/>
	<path d="M505.88,286.64h-1.13v2.12h-0.96v-5.81h2.35c1.03,0,1.86,0.83,1.87,1.85v0.02c-0.01,0.74-0.46,1.41-1.15,1.69l1.32,2.26
		h-1.05L505.88,286.64z M504.75,285.78h1.38c0.54,0,0.98-0.44,0.98-0.98c0-0.54-0.44-0.98-0.98-0.98h-1.37L504.75,285.78z"/>
	<path d="M505.75,280.57c2.98,0,5.39,2.41,5.39,5.39c0,2.98-2.41,5.39-5.39,5.39c-2.98,0-5.39-2.41-5.39-5.39v0
		C500.36,282.99,502.77,280.58,505.75,280.57 M505.75,279.72c-3.45,0-6.25,2.8-6.25,6.25c0,3.45,2.8,6.25,6.25,6.25
		c3.45,0,6.25-2.8,6.25-6.25C512,282.52,509.2,279.72,505.75,279.72z"/>
</g>
</svg>
