<svg width="40" height="40" viewBox="0 0 40 40" fill="none" xmlns="http://www.w3.org/2000/svg">
  <path
    d="M18.0259 10.433C18.0259 5.45897 13.9888 1.42017 9.01114 1.42017C4.03464 1.42017 0.000244141 5.45382 0.000244141 10.4279C0.000244141 15.4019 4.03457 19.4459 9.0134 19.4459H18.0259L18.0259 10.433Z"
    fill="#228800" />
  <path
    d="M20.5541 10.4331C20.5541 5.45903 24.5912 1.42023 29.5689 1.42023C34.5454 1.42023 38.5798 5.45388 38.5798 10.4279C38.5798 15.402 34.5454 19.4459 29.5666 19.4459L20.5541 19.4459L20.5541 10.4331Z"
    fill="#228800" />
  <path
    d="M20.5541 30.9872C20.5541 35.9661 24.5901 40 29.5697 40C34.5439 40 38.5798 35.9691 38.5798 30.9901C38.5798 26.0159 34.5439 21.9743 29.5666 21.9743L20.5541 21.9743V30.9872Z"
    fill="#228800" />
  <path
    d="M18.0257 30.9872C18.0257 35.9661 13.9897 40 9.01013 40C4.03601 40 0 35.9691 0 30.9901C0 26.0159 4.03593 21.9743 9.01319 21.9743H18.0257V30.9872ZM9.01013 37.4585C12.5872 37.4585 15.4974 34.5569 15.4974 30.9901V24.504H9.01836C5.4397 24.504 2.52802 27.4249 2.52802 30.9901C2.52802 34.5569 5.43577 37.4585 9.01013 37.4585Z"
    fill="#228800" />
</svg>
