<svg width="753" height="483" viewBox="0 0 753 483" fill="none" xmlns="http://www.w3.org/2000/svg">
<g opacity="0.9">
<path d="M185.294 7H68.9214C67.5881 7 66.3486 7.7102 65.6853 8.8693L7.5025 109.651C6.8325 110.81 6.8325 112.237 7.5025 113.389L65.6853 214.171C66.3553 215.33 67.5881 216.04 68.9214 216.04H185.294C186.627 216.04 187.866 215.33 188.53 214.171L246.713 113.389C247.383 112.23 247.383 110.803 246.713 109.651L188.53 8.8693C187.86 7.7102 186.627 7 185.294 7Z" stroke="black" stroke-width="14" stroke-miterlimit="10"/>
<path d="M127.446 111.185L66.8105 7.67029" stroke="black" stroke-width="14" stroke-miterlimit="10"/>
<path d="M127.781 111.185H247.041" stroke="black" stroke-width="14" stroke-miterlimit="10"/>
<path d="M67.1455 215.705L127.446 111.185" stroke="black" stroke-width="14" stroke-miterlimit="10"/>
<path d="M356.269 8.47485L415.504 109.391L204.627 474.52H324.826L534.989 112.264L475.754 8.47485H356.269Z" fill="black"/>
<path d="M534.819 113.389L326.557 474.131C325.887 475.29 324.654 476 323.314 476H206.948C206.338 476 205.749 475.853 205.22 475.571C204.596 475.256 204.067 474.761 203.705 474.131L145.523 373.349C144.853 372.19 144.853 370.77 145.523 369.611L353.785 8.8693C354.455 7.7102 355.688 7 357.028 7H473.394C474.734 7 475.967 7.7102 476.637 8.8693L534.819 109.651C535.489 110.81 535.489 112.23 534.819 113.389Z" stroke="black" stroke-width="14" stroke-miterlimit="10"/>
<path d="M566.37 8.47485L625.869 109.391L414.052 474.52H536.558L745.888 112.264L686.389 8.47485H566.37Z" fill="black"/>
<path d="M745.199 113.389L536.936 474.131C536.266 475.29 535.034 476 533.694 476H417.328C416.718 476 416.129 475.853 415.599 475.571C414.976 475.256 414.447 474.761 414.085 474.131L355.902 373.349C355.232 372.19 355.232 370.77 355.902 369.611L564.165 8.8693C564.835 7.7102 566.068 7 567.408 7H683.774C685.114 7 686.346 7.7102 687.016 8.8693L745.199 109.651C745.869 110.81 745.869 112.23 745.199 113.389Z" stroke="black" stroke-width="14" stroke-miterlimit="10"/>
</g>
</svg>
