<?xml version="1.0" encoding="utf-8"?>
<!-- Generator: Adobe Illustrator 27.2.0, SVG Export Plug-In . SVG Version: 6.00 Build 0)  -->
<svg version="1.1" id="Layer_1" xmlns="http://www.w3.org/2000/svg" xmlns:xlink="http://www.w3.org/1999/xlink" x="0px" y="0px"
	 viewBox="0 0 512 512" style="enable-background:new 0 0 512 512;" xml:space="preserve">
<style type="text/css">
	.st0{fill:#3CC48F;}
	.st1{fill:#AEFFDC;}
</style>
<g>
	<path class="st0" d="M168.36,280.93c-4.26-2.34-7.52-5.68-9.85-10.02c-2.25-4.26-3.42-9.27-3.42-14.95
		c0-5.68,1.17-10.61,3.42-14.86c2.25-4.26,5.6-7.6,9.85-9.94s9.27-3.51,15.03-3.51c3.59,0,7.1,0.58,10.52,1.67s6.18,2.59,8.27,4.43
		l-4.43,10.1c-4.59-3.17-9.27-4.76-14.03-4.76c-4.51,0-7.93,1.42-10.36,4.26s-3.59,7.01-3.59,12.69c0,5.6,1.17,9.85,3.59,12.69
		c2.42,2.84,5.85,4.26,10.36,4.26c4.76,0,9.44-1.59,14.03-4.76l4.51,10.19c-2.17,1.84-4.93,3.34-8.27,4.43
		c-3.34,1.09-6.85,1.67-10.52,1.67C177.63,284.44,172.62,283.27,168.36,280.93z"/>
	<path class="st0" d="M214.95,281.85c-3.26-1.67-5.68-4.01-7.43-7.01c-1.75-3.01-2.67-6.6-2.67-10.69s0.92-7.68,2.67-10.69
		c1.75-3.01,4.26-5.34,7.43-6.93s6.93-2.42,11.27-2.42c4.26,0,8.02,0.84,11.27,2.42c3.17,1.59,5.68,3.92,7.43,6.93
		c1.75,3.01,2.67,6.6,2.67,10.69s-0.92,7.68-2.67,10.69c-1.75,3.01-4.26,5.43-7.43,7.01c-3.17,1.67-6.93,2.51-11.27,2.51
		C221.89,284.35,218.13,283.52,214.95,281.85z M233.58,264.14c0-6.51-2.51-9.77-7.43-9.77c-5.01,0-7.43,3.26-7.43,9.77
		c0,6.51,2.51,9.77,7.43,9.77C231.07,273.91,233.58,270.66,233.58,264.14z"/>
	<path class="st0" d="M283.02,255.54l-7.6,0.75c-3.01,0.33-5.18,1.17-6.35,2.42c-1.17,1.34-1.84,3.17-1.84,5.6v19.46H253.2v-38.75
		h13.28v6.68c0.92-2.34,2.34-4.18,4.43-5.43c2-1.25,4.51-1.92,7.43-2.09l3.84-0.33L283.02,255.54z"/>
	<path class="st0" d="M318.09,248.28c2.92,2.84,4.34,7.18,4.34,13.11v22.3h-13.11v-5.43c-0.75,1.92-2,3.34-3.67,4.43
		c-1.75,1.09-3.84,1.59-6.18,1.59c-2.67,0-5.09-0.5-7.27-1.59c-2.17-1.09-3.84-2.59-5.09-4.51c-1.25-1.92-1.84-4.09-1.84-6.51
		c0-2.76,0.75-5.01,2.17-6.68s3.76-2.84,6.85-3.59c3.17-0.75,7.43-1.09,12.78-1.09h2.09v-0.92c0-1.92-0.42-3.26-1.34-4.01
		s-2.51-1.17-4.76-1.17c-1.75,0-3.84,0.33-6.18,1.09c-2.34,0.67-4.51,1.59-6.6,2.67l-3.51-9.19c2.25-1.34,5.09-2.51,8.43-3.42
		c3.42-0.92,6.51-1.34,9.35-1.34C310.66,244.1,315.17,245.52,318.09,248.28z M307.32,272.99c1.17-1.34,1.84-3.09,1.84-5.18v-0.92
		h-1.25c-3.34,0-5.76,0.33-7.18,0.92c-1.42,0.58-2.09,1.59-2.09,3.01c0,1.17,0.42,2.17,1.17,3.01c0.75,0.75,1.75,1.17,2.92,1.17
		C304.56,275,306.15,274.33,307.32,272.99z"/>
	<rect x="328.95" y="228.32" class="st0" width="14.03" height="55.45"/>
	<path class="st0" d="M358.84,281.85c-3.26-1.67-5.68-4.01-7.43-7.01c-1.75-3.01-2.67-6.6-2.67-10.69s0.92-7.68,2.67-10.69
		c1.75-3.01,4.26-5.34,7.43-6.93s6.93-2.42,11.27-2.42c4.26,0,8.02,0.84,11.27,2.42c3.17,1.59,5.68,3.92,7.43,6.93
		c1.75,3.01,2.67,6.6,2.67,10.69s-0.92,7.68-2.67,10.69c-1.75,3.01-4.26,5.43-7.43,7.01c-3.17,1.67-6.93,2.51-11.27,2.51
		S362.02,283.52,358.84,281.85z M377.47,264.14c0-6.51-2.51-9.77-7.43-9.77c-5.01,0-7.43,3.26-7.43,9.77c0,6.51,2.51,9.77,7.43,9.77
		C375.04,273.91,377.47,270.66,377.47,264.14z"/>
	<path class="st0" d="M439.43,245.02v33.99c0,6.43-1.92,11.27-5.68,14.53c-3.84,3.34-9.44,4.93-16.87,4.93
		c-3.51,0-6.93-0.42-10.19-1.25c-3.34-0.84-6.18-1.92-8.6-3.42l3.51-9.52c2.42,1.25,4.93,2.25,7.52,2.92c2.59,0.67,5.01,1,7.35,1
		c3.09,0,5.43-0.67,6.85-2c1.5-1.34,2.25-3.42,2.25-6.35v-3.01c-1.17,1.75-2.84,3.09-4.93,4.09c-2.17,1-4.51,1.5-7.01,1.5
		c-3.34,0-6.35-0.75-8.94-2.34c-2.59-1.59-4.68-3.84-6.1-6.76c-1.5-2.92-2.17-6.26-2.17-10.1s0.75-7.18,2.17-10.1
		c1.5-2.92,3.51-5.18,6.1-6.76c2.59-1.59,5.6-2.42,8.94-2.42c2.59,0,4.93,0.5,7.1,1.59s3.84,2.51,4.93,4.34v-4.93h13.78V245.02z
		 M423.65,269.82c1.34-1.59,2-3.67,2-6.43s-0.67-4.93-2-6.51c-1.34-1.59-3.26-2.34-5.76-2.34c-2.42,0-4.26,0.75-5.68,2.34
		c-1.34,1.59-2,3.76-2,6.6c0,2.76,0.67,4.84,2.09,6.43c1.42,1.59,3.26,2.34,5.6,2.34C420.39,272.16,422.31,271.41,423.65,269.82z"/>
	<path class="st0" d="M445.69,225.73h14.61v12.69h-14.61V225.73z M446.03,283.77v-38.75h14.03v38.67h-14.03V283.77z"/>
	<polygon class="st0" points="495.55,263.72 512,283.68 495.63,283.68 487.53,273.5 479.43,283.68 463.15,283.68 479.6,263.72 
		464.07,245.02 480.52,245.02 487.53,254.12 494.63,245.02 511.08,245.02 	"/>
	
		<ellipse transform="matrix(0.0453 -0.999 0.999 0.0453 -200.2896 302.5027)" class="st0" cx="58.12" cy="256.04" rx="52.28" ry="52.28"/>
	<path class="st1" d="M58.12,314.08C26.06,314.08,0,288.03,0,256.04c0-32.07,26.06-58.12,58.12-58.12s58.12,26.06,58.12,58.12
		C116.16,288.03,90.11,314.08,58.12,314.08z M58.12,209.44c-25.64,0-46.52,20.88-46.52,46.52c0,25.64,20.88,46.52,46.52,46.52
		s46.52-20.88,46.52-46.52C104.64,230.32,83.76,209.44,58.12,209.44z"/>
</g>
</svg>
