<?xml version="1.0" encoding="UTF-8"?>
<svg id="Layer_1" xmlns="http://www.w3.org/2000/svg" version="1.1" viewBox="0 0 121 32">
  <!-- Generator: Adobe Illustrator 29.5.1, SVG Export Plug-In . SVG Version: 2.1.0 Build 141)  -->
  <defs>
    <style>
      .st0 {
        fill: #00773d;
      }
    </style>
  </defs>
  <path class="st0" d="M20.5,7.7c1.3,0,2.3-1,2.3-2.3s-1-2.3-2.3-2.3-2.3,1-2.3,2.3,1,2.3,2.3,2.3Z"/>
  <path class="st0" d="M22.6,8.8h-4.2v14.3h4.2v-14.3Z"/>
  <path class="st0" d="M87.7,7.7c1.3,0,2.3-1,2.3-2.3s-1-2.3-2.3-2.3-2.3,1-2.3,2.3,1,2.3,2.3,2.3Z"/>
  <path class="st0" d="M89.7,8.8h-4.2v14.3h4.2v-14.3Z"/>
  <path class="st0" d="M120.1,15.5c0-4.1-3.3-7-7.2-7s-7.6,3.1-7.6,7.5,3,7.5,7.6,7.5,6.5-2.4,7-5.1h-4c-.5,1.2-1.8,1.8-3.1,1.8-1.7,0-2.9-1-3.3-3.2h10.6v-1.4ZM109.6,14.3c.5-2.1,2-2.6,3.3-2.6s2.9.7,3.1,2.6h-6.4Z"/>
  <path class="st0" d="M102.2,8.8h4.3l-5.8,14.3h-4.4l-5.8-14.3h4.5l3.6,9.5,3.7-9.5Z"/>
  <path class="st0" d="M79.3,11.1c1-1.5,2.5-2.5,4.3-2.5s.7,0,1,.1v3.9c-.3,0-.7,0-1.1,0-2.7,0-4.1,2-4.1,4.8v5.8h-4.1v-10.5c0-.2,0-.3-.3-.3h-1.4v-3.5h3.6c1.5,0,2.2.7,2.2,2v.3Z"/>
  <path class="st0" d="M72.7,19.7c-.2,0-.3,0-.3-.3V5.1c0-1.4-.7-2.1-2.3-2.1h-3.6v3.5h1.3c.3,0,.3,0,.3.3v3.4c-.5-.7-2.1-1.6-4.1-1.6-4,0-7,3.1-7,7.5s2.8,7.5,6.9,7.5,3.9-1.1,4.5-2.1c0,.6.5,1.8,2,1.8h3.7v-3.5h-1.5ZM64.9,20c-2,0-3.5-1.5-3.5-4s1.5-4,3.5-4,3.4,2,3.4,3.9c0,3-1.8,4.1-3.4,4.1Z"/>
  <path class="st0" d="M56.3,15.5c0-4.1-3.3-7-7.2-7s-7.6,3.1-7.6,7.5,3,7.5,7.6,7.5,6.5-2.4,7-5.1h-4c-.5,1.2-1.8,1.8-3.1,1.8-1.7,0-2.9-1-3.3-3.2h10.6v-1.4ZM45.8,14.3c.5-2.1,2-2.6,3.3-2.6s2.9.7,3.1,2.6h-6.4Z"/>
  <path class="st0" d="M33.8,8.5c-2.3,0-4,1.2-4.6,2.3-.1-.6-.5-2-2.1-2h-3.5v3.5h1.4c.3,0,.3,0,.3.3v16.4h4.2v-7.4c.6,1,2.2,1.8,4.1,1.8,4.1,0,6.9-3,6.9-7.5,0-4.5-2.7-7.5-6.7-7.5ZM32.8,20c-2.3,0-3.3-2-3.3-4,0-3,1.8-4,3.4-4s3.5,1.6,3.5,4c0,2.8-1.9,4-3.5,4Z"/>
  <path class="st0" d="M17.4,16c0,4.4-2.9,7.5-6.9,7.5s-3.5-.8-4.1-1.8v1s0,6.3,0,6.3H2.2V12.6c0-.2,0-.3-.3-.3H.4v-3.5h3.5c1.6,0,2,1.4,2.1,2,.6-1.1,2.3-2.3,4.6-2.3,4,0,6.7,3,6.7,7.5ZM13.1,16c0-2.4-1.5-4-3.5-4s-3.4,1.1-3.4,4,1.1,4,3.3,4c1.7,0,3.5-1.2,3.5-4Z"/>
</svg>