<svg width="230" height="137" viewBox="0 0 230 137" fill="none" xmlns="http://www.w3.org/2000/svg">
<path fill-rule="evenodd" clip-rule="evenodd" d="M229.812 0.101852H227.602C215.97 0.0837402 206.53 9.50557 206.53 21.1379V68.1836C206.53 77.5783 198.766 85.1883 189.525 85.1883C184.035 85.1883 178.554 82.4251 175.302 77.7867L127.25 9.16132C123.264 3.46292 116.778 0.0656128 109.757 0.0656128C98.8036 0.0656128 88.947 9.37874 88.947 20.8752V68.1927C88.947 77.5874 81.2464 85.1973 71.9424 85.1973C66.4342 85.1973 60.9623 82.4342 57.71 77.7957L3.94208 1.0078C2.72815 -0.722549 0.0012207 0.129028 0.0012207 2.24895V43.2792C0.0012207 45.3538 0.635376 47.3651 1.8222 49.0682L54.7294 124.633C57.8549 129.099 62.4662 132.415 67.7841 133.62C81.0924 136.646 93.3408 126.4 93.3408 113.345V66.0547C93.3408 56.66 100.951 49.0501 110.345 49.0501H110.373C116.035 49.0501 121.344 51.8132 124.596 56.4516L172.647 125.068C176.642 130.775 182.794 134.164 190.132 134.164C201.33 134.164 210.923 124.841 210.923 113.354V66.0456C210.923 56.651 218.533 49.041 227.928 49.041H229.803C230.981 49.041 231.932 48.0898 231.932 46.9121V2.22177C231.932 1.04404 230.981 0.0927887 229.803 0.0927887L229.812 0.101852Z" fill="white"/>
</svg>
