<svg xmlns="http://www.w3.org/2000/svg" width="30" height="30" viewBox="0 0 30 30"
    preserveAspectRatio="xMinYMid meet">
    <g fill="none">
        <path fill="#8039E9"
            d="M27.0284333,12.8254391 L18.8930861,12.8254391 C18.4282091,12.8254391 18.0740172,13.3013846 18.2400447,13.7441246 L20.1991691,18.8134974 C20.2877171,19.0348674 20.1106211,19.2783744 19.8671141,19.2673059 L17.3656332,19.1123469 C17.2549482,19.1012784 17.1442632,19.1566209 17.0778522,19.2562374 L15.1297963,22.0122937 C15.0301798,22.1672527 14.8198783,22.2225952 14.6538508,22.1119102 L11.7760409,20.1527858 C11.6653559,20.0753063 11.5103969,20.0753063 11.3997119,20.1527858 L7.41505211,22.8534997 C7.16047663,23.0305957 6.81735314,22.7870887 6.90590114,22.4882392 L8.01275109,18.5146479 C8.05702509,18.3486204 7.97954559,18.1825929 7.8135181,18.1161819 L5.69943469,17.2528389 C5.4891332,17.1642909 5.4227222,16.9097155 5.56661269,16.7326195 L7.43718911,14.4303716 C7.52573711,14.3196866 7.53680561,14.1536591 7.44825761,14.0319056 L5.87653068,11.7628632 C5.73264019,11.5525617 5.86546218,11.2647807 6.13110617,11.2426437 L8.56617607,11.0544792 C8.74327206,11.0434107 8.88716255,10.8884517 8.87609405,10.7002872 L8.68792956,7.29118936 C8.67686106,7.04768237 8.92036805,6.87058638 9.15280654,6.95913438 L12.1745069,8.20987482 C12.3073289,8.26521732 12.4622879,8.23201182 12.5508359,8.12132683 L14.6317138,5.79694193 C14.7977413,5.60877743 15.0965908,5.66411993 15.1962073,5.88548992 L16.4469477,9.10642328 C16.6129752,9.50488927 17.1110577,9.64877976 17.4652497,9.38313577 L22.3575265,5.74159943 C22.9109515,5.33206494 22.5567595,4.44658498 21.8705125,4.54620148 L18.6495791,4.97787296 C18.4946201,5 18.3507297,4.91146196 18.2953872,4.76757147 L16.6019067,0.417651154 C16.4137422,-0.036157327 15.8271118,-0.146842322 15.4950568,0.218418162 L11.8092464,4.21414649 C11.7096299,4.31376299 11.5657394,4.34696849 11.4329174,4.29162599 L6.58491465,2.24395358 C6.15324317,2.06685758 5.67729769,2.36570707 5.65516069,2.84165255 L5.4780647,7.84461434 C5.4669962,8.02171033 5.3341742,8.15453232 5.16814671,8.16560082 L0.740746899,8.45338181 C0.220527421,8.48658731 -0.0561850675,9.07321779 0.23159592,9.49382077 L3.1758168,13.8326726 C3.26436479,13.9544261 3.25329629,14.1204536 3.1536798,14.2422071 L0.165184923,17.6734419 C-0.133664564,18.0165654 -0.0119110694,18.5478534 0.408691913,18.7249494 L3.83992677,20.2081283 C3.99488576,20.2745393 4.07236526,20.4405668 4.02809126,20.5955258 L1.83652835,29.1625444 C1.68156936,29.7713119 2.36781633,30.2361889 2.87696731,29.8709284 L11.111931,23.9603497 C11.222616,23.8828702 11.3775749,23.8718017 11.4993284,23.9603497 L15.2515498,26.5946525 C15.5614678,26.8160225 15.9820708,26.7274745 16.1923722,26.4175565 L18.5388941,22.8202942 C18.6053051,22.7096092 18.7381271,22.6542667 18.8598806,22.6764037 L24.4716099,23.3515822 C24.9254184,23.4179932 25.3792269,23.0416642 25.2131994,22.6210612 L22.877746,16.5776605 C22.811335,16.411633 22.877746,16.234537 23.0769789,16.1349205 L27.3383513,14.1204536 C27.9692557,13.7994671 27.7478858,12.8254391 27.0284333,12.8254391 Z"></path>
    </g>
</svg>