<?xml version="1.0" encoding="UTF-8"?>
<svg version="1.1" xmlns="http://www.w3.org/2000/svg" width="164" height="168">
<path d="M0 0 C15.92973874 13.27011628 26.48084659 33.36745364 28.46875 54.0078125 C29.85883494 77.26014242 24.23432567 98.97973384 8.69335938 116.79125977 C-6.45311912 133.573705 -26.20229756 144.08703726 -49.0234375 145.3671875 C-74.10953198 145.67530739 -95.32319557 137.86849595 -113.578125 120.14453125 C-121.63370792 111.91412387 -127.27922779 101.85408655 -131.40234375 91.1640625 C-131.81613281 90.09542969 -132.22992188 89.02679688 -132.65625 87.92578125 C-138.04342611 71.35129865 -137.43574485 51.44798243 -131.40234375 35.1640625 C-131.10199219 34.26171875 -130.80164063 33.359375 -130.4921875 32.4296875 C-124.12808523 14.68734177 -109.21334274 -1.10730949 -92.89453125 -10.19921875 C-61.36544873 -24.97627197 -27.62183332 -21.10936856 0 0 Z M-94.40234375 17.1640625 C-94.40234375 17.4940625 -94.40234375 17.8240625 -94.40234375 18.1640625 C-84.50234375 18.1640625 -74.60234375 18.1640625 -64.40234375 18.1640625 C-64.40234375 13.2140625 -64.40234375 8.2640625 -64.40234375 3.1640625 C-75.54487813 3.1640625 -86.02867194 10.43174164 -94.40234375 17.1640625 Z M-43.40234375 3.1640625 C-43.40234375 42.7640625 -43.40234375 82.3640625 -43.40234375 123.1640625 C-24.92613748 118.12509715 -10.62180933 110.08683073 -0.6796875 93.24609375 C7.12287643 78.42697355 9.64349348 61.37722116 4.97265625 45.0390625 C-1.0474411 28.78270206 -12.07830656 14.93363258 -27.90234375 7.2890625 C-33.1255819 4.92538194 -37.42567391 4.35939647 -43.40234375 3.1640625 Z M-109.40234375 39.1640625 C-112.77127614 45.11135787 -112.77127614 45.11135787 -113.40234375 52.1640625 C-97.23234375 52.1640625 -81.06234375 52.1640625 -64.40234375 52.1640625 C-64.40234375 47.8740625 -64.40234375 43.5840625 -64.40234375 39.1640625 C-79.25234375 39.1640625 -94.10234375 39.1640625 -109.40234375 39.1640625 Z M-113.40234375 73.1640625 C-112.62595055 80.0895269 -112.62595055 80.0895269 -110.40234375 86.1640625 C-95.22234375 86.1640625 -80.04234375 86.1640625 -64.40234375 86.1640625 C-64.40234375 81.8740625 -64.40234375 77.5840625 -64.40234375 73.1640625 C-80.57234375 73.1640625 -96.74234375 73.1640625 -113.40234375 73.1640625 Z M-94.40234375 107.1640625 C-86.51390601 117.02460967 -76.21629928 120.21057362 -64.40234375 123.1640625 C-64.40234375 117.8840625 -64.40234375 112.6040625 -64.40234375 107.1640625 C-74.30234375 107.1640625 -84.20234375 107.1640625 -94.40234375 107.1640625 Z " fill="#4F46E5" transform="translate(135.40234375,20.8359375)"/>
</svg>
