<svg height="1243" viewBox="-.2 -.1 128.9 64.1" width="2500" xmlns="http://www.w3.org/2000/svg"><path d="m38.7 37.2c.1.2.4.2.4 0l7-18.2c.3-.9 1.2-1.4 2.1-1.4h6.5c1.2 0 2.3 1 2.3 2.2 0 .3 0 .5-.1.8l-15.8 42.5c0 .1-.5.5-.9.8-.1.1-.3.1-.5.1-.6-.2-1.2-.7-1.4-1.3l-8.4-20.3c-.3-.6-1-.9-1.6-.6-.2.1-.5.3-.6.6l-10.6 21.1c-.1.1-.2.2-.3.1-.1 0-.1-.1-.1-.1l-16.5-43c-.4-1.2.1-2.5 1.3-2.9.3-.1.5-.2.8-.2h7.1c.9 0 1.8.6 2.1 1.4l7 18.3c.1.2.4.2.4 0l8.8-19.1c.3-.6 1-.9 1.6-.6.3.1.5.3.6.6zm80.3-37c-.1-.3-.6-.3-.7 0-.4 2-1.3 5-2.9 6.6s-4.6 2.5-6.6 2.9c-.3.1-.3.6 0 .7 2 .4 5 1.3 6.6 2.9 2.1 2.1 2.8 5 3.1 6.7 0 .1.4.1.4 0 .4-1.8 1.2-5 2.9-6.7 1.6-1.6 4.6-2.5 6.6-2.9.3-.1.3-.6 0-.7-2-.4-5-1.3-6.6-2.9-1.5-1.6-2.4-4.6-2.8-6.6zm-59.5 19.8c0-1.2 1-2.3 2.3-2.3h6.8c1.2 0 2.3 1 2.3 2.3v41.7c0 1.2-1 2.3-2.3 2.3h-6.8c-1.2 0-2.3-1-2.3-2.3zm31 9.6c.1-.3 0-.7-.3-.8-.1 0-.2-.1-.3-.1h-13.4c-1.2 0-2.3-1-2.3-2.3v-6.4c0-1.2 1-2.3 2.3-2.3h31.1c1 0 2.3.8 1.8 1.6l-18 33.6c-.2.3 0 .7.3.8.1 0 .2.1.3.1h16.4c1.2 0 2.3 1 2.3 2.3v5.6c0 1.2-1 2.3-2.3 2.3h-33c-1.1 0-1.3-1.6-.8-2.6z" fill="#325fe8"/></svg>